<svg xmlns="http://www.w3.org/2000/svg" width="180" height="84" viewBox="0 0 180 84">
  <g id="bijzonder-circles-2" transform="translate(-705 -598)">
    <circle id="Ellipse_6" data-name="Ellipse 6" cx="6" cy="6" r="6" transform="translate(705 598)" fill="#d80000"/>
    <circle id="Ellipse_24" data-name="Ellipse 24" cx="6" cy="6" r="6" transform="translate(705 646)" fill="#d80000"/>
    <circle id="Ellipse_10" data-name="Ellipse 10" cx="6" cy="6" r="6" transform="translate(753 598)" fill="#d80000"/>
    <circle id="Ellipse_25" data-name="Ellipse 25" cx="6" cy="6" r="6" transform="translate(753 646)" fill="#d80000"/>
    <circle id="Ellipse_14" data-name="Ellipse 14" cx="6" cy="6" r="6" transform="translate(801 598)" fill="#d80000"/>
    <circle id="Ellipse_36" data-name="Ellipse 36" cx="6" cy="6" r="6" transform="translate(849 598)" fill="#d80000"/>
    <circle id="Ellipse_26" data-name="Ellipse 26" cx="6" cy="6" r="6" transform="translate(801 646)" fill="#d80000"/>
    <circle id="Ellipse_33" data-name="Ellipse 33" cx="6" cy="6" r="6" transform="translate(849 646)" fill="#d80000"/>
    <circle id="Ellipse_9" data-name="Ellipse 9" cx="6" cy="6" r="6" transform="translate(705 622)" fill="#d80000"/>
    <circle id="Ellipse_23" data-name="Ellipse 23" cx="6" cy="6" r="6" transform="translate(705 670)" fill="#d80000"/>
    <circle id="Ellipse_11" data-name="Ellipse 11" cx="6" cy="6" r="6" transform="translate(753 622)" fill="#d80000"/>
    <circle id="Ellipse_18" data-name="Ellipse 18" cx="6" cy="6" r="6" transform="translate(753 670)" fill="#d80000"/>
    <circle id="Ellipse_15" data-name="Ellipse 15" cx="6" cy="6" r="6" transform="translate(801 622)" fill="#d80000"/>
    <circle id="Ellipse_34" data-name="Ellipse 34" cx="6" cy="6" r="6" transform="translate(849 622)" fill="#d80000"/>
    <circle id="Ellipse_19" data-name="Ellipse 19" cx="6" cy="6" r="6" transform="translate(801 670)" fill="#d80000"/>
    <circle id="Ellipse_35" data-name="Ellipse 35" cx="6" cy="6" r="6" transform="translate(849 670)" fill="#d80000"/>
    <circle id="Ellipse_7" data-name="Ellipse 7" cx="6" cy="6" r="6" transform="translate(729 598)" fill="#d80000"/>
    <circle id="Ellipse_27" data-name="Ellipse 27" cx="6" cy="6" r="6" transform="translate(729 646)" fill="#d80000"/>
    <circle id="Ellipse_12" data-name="Ellipse 12" cx="6" cy="6" r="6" transform="translate(777 598)" fill="#d80000"/>
    <circle id="Ellipse_28" data-name="Ellipse 28" cx="6" cy="6" r="6" transform="translate(777 646)" fill="#d80000"/>
    <circle id="Ellipse_16" data-name="Ellipse 16" cx="6" cy="6" r="6" transform="translate(825 598)" fill="#d80000"/>
    <circle id="Ellipse_37" data-name="Ellipse 37" cx="6" cy="6" r="6" transform="translate(873 598)" fill="#d80000"/>
    <circle id="Ellipse_29" data-name="Ellipse 29" cx="6" cy="6" r="6" transform="translate(825 646)" fill="#d80000"/>
    <circle id="Ellipse_31" data-name="Ellipse 31" cx="6" cy="6" r="6" transform="translate(873 646)" fill="#d80000"/>
    <circle id="Ellipse_8" data-name="Ellipse 8" cx="6" cy="6" r="6" transform="translate(729 622)" fill="#d80000"/>
    <circle id="Ellipse_20" data-name="Ellipse 20" cx="6" cy="6" r="6" transform="translate(729 670)" fill="#d80000"/>
    <circle id="Ellipse_13" data-name="Ellipse 13" cx="6" cy="6" r="6" transform="translate(777 622)" fill="#d80000"/>
    <circle id="Ellipse_21" data-name="Ellipse 21" cx="6" cy="6" r="6" transform="translate(777 670)" fill="#d80000"/>
    <circle id="Ellipse_17" data-name="Ellipse 17" cx="6" cy="6" r="6" transform="translate(825 622)" fill="#d80000"/>
    <circle id="Ellipse_32" data-name="Ellipse 32" cx="6" cy="6" r="6" transform="translate(873 622)" fill="#d80000"/>
    <circle id="Ellipse_22" data-name="Ellipse 22" cx="6" cy="6" r="6" transform="translate(825 670)" fill="#d80000"/>
    <circle id="Ellipse_30" data-name="Ellipse 30" cx="6" cy="6" r="6" transform="translate(873 670)" fill="#d80000"/>
  </g>
</svg>
