<svg xmlns="http://www.w3.org/2000/svg" width="84" height="132" viewBox="0 0 84 132">
  <g id="header-img-bottom" transform="translate(-801 -598)">
    <circle id="Ellipse_14" data-name="Ellipse 14" cx="6" cy="6" r="6" transform="translate(801 598)" fill="#f0e9e9"/>
    <circle id="Ellipse_36" data-name="Ellipse 36" cx="6" cy="6" r="6" transform="translate(849 598)" fill="#f0e9e9"/>
    <circle id="Ellipse_26" data-name="Ellipse 26" cx="6" cy="6" r="6" transform="translate(801 646)" fill="#f0e9e9"/>
    <circle id="Ellipse_41" data-name="Ellipse 41" cx="6" cy="6" r="6" transform="translate(801 694)" fill="#f0e9e9"/>
    <circle id="Ellipse_33" data-name="Ellipse 33" cx="6" cy="6" r="6" transform="translate(849 646)" fill="#f0e9e9"/>
    <circle id="Ellipse_42" data-name="Ellipse 42" cx="6" cy="6" r="6" transform="translate(849 694)" fill="#f0e9e9"/>
    <circle id="Ellipse_15" data-name="Ellipse 15" cx="6" cy="6" r="6" transform="translate(801 622)" fill="#f0e9e9"/>
    <circle id="Ellipse_34" data-name="Ellipse 34" cx="6" cy="6" r="6" transform="translate(849 622)" fill="#f0e9e9"/>
    <circle id="Ellipse_19" data-name="Ellipse 19" cx="6" cy="6" r="6" transform="translate(801 670)" fill="#f0e9e9"/>
    <circle id="Ellipse_45" data-name="Ellipse 45" cx="6" cy="6" r="6" transform="translate(801 718)" fill="#f0e9e9"/>
    <circle id="Ellipse_35" data-name="Ellipse 35" cx="6" cy="6" r="6" transform="translate(849 670)" fill="#f0e9e9"/>
    <circle id="Ellipse_46" data-name="Ellipse 46" cx="6" cy="6" r="6" transform="translate(849 718)" fill="#f0e9e9"/>
    <circle id="Ellipse_16" data-name="Ellipse 16" cx="6" cy="6" r="6" transform="translate(825 598)" fill="#f0e9e9"/>
    <circle id="Ellipse_37" data-name="Ellipse 37" cx="6" cy="6" r="6" transform="translate(873 598)" fill="#f0e9e9"/>
    <circle id="Ellipse_29" data-name="Ellipse 29" cx="6" cy="6" r="6" transform="translate(825 646)" fill="#f0e9e9"/>
    <circle id="Ellipse_48" data-name="Ellipse 48" cx="6" cy="6" r="6" transform="translate(825 694)" fill="#f0e9e9"/>
    <circle id="Ellipse_31" data-name="Ellipse 31" cx="6" cy="6" r="6" transform="translate(873 646)" fill="#f0e9e9"/>
    <circle id="Ellipse_52" data-name="Ellipse 52" cx="6" cy="6" r="6" transform="translate(873 694)" fill="#f0e9e9"/>
    <circle id="Ellipse_17" data-name="Ellipse 17" cx="6" cy="6" r="6" transform="translate(825 622)" fill="#f0e9e9"/>
    <circle id="Ellipse_32" data-name="Ellipse 32" cx="6" cy="6" r="6" transform="translate(873 622)" fill="#f0e9e9"/>
    <circle id="Ellipse_22" data-name="Ellipse 22" cx="6" cy="6" r="6" transform="translate(825 670)" fill="#f0e9e9"/>
    <circle id="Ellipse_51" data-name="Ellipse 51" cx="6" cy="6" r="6" transform="translate(825 718)" fill="#f0e9e9"/>
    <circle id="Ellipse_30" data-name="Ellipse 30" cx="6" cy="6" r="6" transform="translate(873 670)" fill="#f0e9e9"/>
    <circle id="Ellipse_53" data-name="Ellipse 53" cx="6" cy="6" r="6" transform="translate(873 718)" fill="#f0e9e9"/>
  </g>
</svg>
