<svg id="minor2" xmlns="http://www.w3.org/2000/svg" width="72.002" height="72.002" viewBox="0 0 72.002 72.002">
  <g id="Group_20" data-name="Group 20" transform="translate(0 0)">
    <path id="Path_61" data-name="Path 61" d="M69.527,46.6H60.637V34.8a6.693,6.693,0,0,0-1.973-4.764l-1.548-1.548a2,2,0,1,0-1.492,1.492l1.548,1.548A4.6,4.6,0,0,1,58.528,34.8V46.6h-4V38.61a8.169,8.169,0,0,0-6.046-7.879l-7.734-2.073v-3A9.3,9.3,0,0,0,45.3,17.676V6.737a4.185,4.185,0,0,0-4.18-4.18H39.739A3.617,3.617,0,0,0,36.285,0H33.444a6.744,6.744,0,0,0-6.737,6.737V17.676a9.3,9.3,0,0,0,4.546,7.985v3L23.519,30.73a8.169,8.169,0,0,0-6.046,7.879V46.6h-4V34.8a4.6,4.6,0,0,1,1.355-3.272l1.548-1.548a2,2,0,1,0-1.492-1.492l-1.548,1.548A6.693,6.693,0,0,0,11.365,34.8V46.6H2.475A2.478,2.478,0,0,0,0,49.07v1.989a2.478,2.478,0,0,0,2.475,2.475h.366v2.355a2.478,2.478,0,0,0,2.475,2.475h.366V70.947a1.055,1.055,0,1,0,2.109,0V58.364h3.573V70.947a1.055,1.055,0,1,0,2.109,0V58.364h4.587a1.055,1.055,0,1,0,0-2.109H5.316a.366.366,0,0,1-.366-.366V53.534H58.517a1.055,1.055,0,0,0,0-2.109H2.475a.366.366,0,0,1-.366-.366V49.07a.366.366,0,0,1,.366-.366H69.527a.366.366,0,0,1,.366.366v1.989a.366.366,0,0,1-.366.366H63.459a1.055,1.055,0,1,0,0,2.109h3.593v2.355a.366.366,0,0,1-.366.366H23a1.055,1.055,0,1,0,0,2.109H58.528V70.947a1.055,1.055,0,1,0,2.109,0V58.364H64.21V70.947a1.055,1.055,0,1,0,2.109,0V58.364h.366a2.478,2.478,0,0,0,2.475-2.475V53.534h.366A2.478,2.478,0,0,0,72,51.059V49.07A2.478,2.478,0,0,0,69.527,46.6ZM33.762,33.652l-1.9,1.587-.007.005-1.237,1.031-1.357-4.9,2.184-.585a4.768,4.768,0,0,0,2.32,2.862Zm1.571,7.239h1.349l2.074,5.7H33.376Zm1.459-2.109H35.209l-1.338-2.474L36,34.533l2.13,1.775Zm3.358-3.537-.007-.005-1.9-1.587A4.769,4.769,0,0,0,40.56,30.79l2.184.585-1.357,4.9ZM43.186,6.737v4.485h-1.5A1.788,1.788,0,0,1,39.9,9.436V4.667h1.218a2.073,2.073,0,0,1,2.071,2.07Zm-14.369,0a4.633,4.633,0,0,1,4.628-4.628h2.841a1.5,1.5,0,0,1,1.5,1.5V9.436A1.788,1.788,0,0,1,36,11.223H28.817V6.737Zm0,10.939V13.332H36A3.885,3.885,0,0,0,38.842,12.1a3.885,3.885,0,0,0,2.841,1.234h1.5v4.344a7.185,7.185,0,1,1-14.369,0ZM36,26.97a9.261,9.261,0,0,0,2.639-.384v2.881a2.639,2.639,0,1,1-5.278,0V26.586A9.261,9.261,0,0,0,36,26.97ZM19.583,38.61a6.057,6.057,0,0,1,4.482-5.842l3.156-.846,1.8,6.492a1.055,1.055,0,0,0,1.692.529l1.508-1.257,1.215,2.246L31.146,46.6H27.112V44.809a1.055,1.055,0,0,0-2.109,0V46.6h-5.42ZM47,46.6V44.809a1.055,1.055,0,0,0-2.109,0V46.6H41l-2.427-6.674,1.209-2.236,1.508,1.257a1.055,1.055,0,0,0,1.692-.529l1.8-6.492,3.156.846A6.057,6.057,0,0,1,52.42,38.61v7.985Z" transform="translate(0 0)" fill="#d80000"/>
    <path id="Path_62" data-name="Path 62" d="M359.79,0H343.311a3.9,3.9,0,0,0-3.9,3.9V15.26a3.9,3.9,0,0,0,3.9,3.9h.508v3.775a1.055,1.055,0,0,0,1.79.757l4.665-4.532h2.872a1.055,1.055,0,1,0,0-2.109h-3.3a1.055,1.055,0,0,0-.735.3l-3.182,3.091V18.1a1.055,1.055,0,0,0-1.055-1.055h-1.563a1.788,1.788,0,0,1-1.786-1.786V3.9a1.788,1.788,0,0,1,1.786-1.786H359.79A1.788,1.788,0,0,1,361.576,3.9V15.26a1.788,1.788,0,0,1-1.786,1.786H358.08a1.055,1.055,0,0,0,0,2.109h1.709a3.9,3.9,0,0,0,3.9-3.9V3.9a3.9,3.9,0,0,0-3.9-3.9Z" transform="translate(-291.683 0)" fill="#d80000"/>
  </g>
</svg>
