<svg xmlns="http://www.w3.org/2000/svg" width="60" height="59.999" viewBox="0 0 60 59.999">
  <g id="minor1" transform="translate(0.002 0.001)">
    <g id="_001---Thinking" data-name="001---Thinking" transform="translate(-0.002 -0.001)">
      <path id="Shape" d="M2.471,38.39a7.337,7.337,0,0,0,1.038.6c.433.221,1.157.591,1.208.851A1.727,1.727,0,0,1,4.6,40.852c-.149.32-.306.595-.44.833-.367.646-.979,1.729-.055,2.485.216.2.589.489.93.75a2.52,2.52,0,0,0-.326,1.443,1.443,1.443,0,0,0,.587.98c.225.16.466.3.7.435.588.335.818.491.9.8a2.761,2.761,0,0,1-.11,1.211c-.059.26-.116.519-.153.785a5.878,5.878,0,0,0,.338,2.694A3.747,3.747,0,0,0,10.514,56a4.068,4.068,0,0,0,.817-.086,75.813,75.813,0,0,0,8.431-2.523c2.252,1.322,3.676,5.342,4.047,6.851a1,1,0,0,0,.971.758l25.1-.07a1,1,0,0,0,.952-1.3,7.725,7.725,0,0,0-1.013-1.9,9.281,9.281,0,0,1-.648-1.08A19.038,19.038,0,0,1,48.04,53.8a33.7,33.7,0,0,1-1.183-5.916A16.928,16.928,0,0,1,48.171,39.1a22.352,22.352,0,0,1,2.716-4.293c.6-.81,1.223-1.649,1.782-2.53a15.466,15.466,0,0,0,2.06-4.87,1,1,0,0,0-1.948-.452,13.5,13.5,0,0,1-1.8,4.25c-.519.821-1.119,1.629-1.7,2.411a24.165,24.165,0,0,0-2.943,4.685,18.917,18.917,0,0,0-1.466,9.82A35.489,35.489,0,0,0,46.133,54.4a20.854,20.854,0,0,0,1.241,3.132,10.933,10.933,0,0,0,.775,1.3l.067.1L25.535,59a15.946,15.946,0,0,0-3.521-6.386l.9-.313c.672-.235,1.179-.412,1.441-.5,4.282-1.365,6.424-3.315,6.365-5.8a.982.982,0,0,0-1.021-.971,1,1,0,0,0-.976,1.023c.024,1.023-.819,2.521-4.976,3.845-.272.087-.8.27-1.491.513-.743.259-1.685.589-2.725.942h-.007a77.875,77.875,0,0,1-8.594,2.6,1.781,1.781,0,0,1-2.06-1.331,4,4,0,0,1-.247-1.772c.029-.2.076-.41.122-.614a4.364,4.364,0,0,0,.1-2.153A3.314,3.314,0,0,0,7,46.04l-.215-.123a3.68,3.68,0,0,1,.386-.62,1,1,0,0,0-.193-1.424c-.239-.176-.8-.6-1.22-.934.048-.087.1-.183.151-.269.157-.276.337-.6.511-.967a3.733,3.733,0,0,0,.266-2.237c-.239-1.22-1.408-1.818-2.261-2.254a5.782,5.782,0,0,1-.824-.479,4.26,4.26,0,0,1-.6-.486c0-.152.163-.519.924-1.446A40.345,40.345,0,0,0,8.5,27.367a2.972,2.972,0,0,0,.386-1.352,3.5,3.5,0,0,0-1.467-2.5c-.4-.372-.788-.722-.831-1.017a1.965,1.965,0,0,1,.162-.711c.163-.428.352-.848.54-1.269a14.677,14.677,0,0,0,1-2.711,26.821,26.821,0,0,1,.9-3.308,17.144,17.144,0,0,1,3.588-5.861C14.689,6.614,17.7,5.182,21.739,4.38a64.98,64.98,0,0,1,9.382-1.352,21.888,21.888,0,0,1,3.185.068,1,1,0,1,0,.186-2,24.324,24.324,0,0,0-3.476-.069,66.746,66.746,0,0,0-9.672,1.388c-4.509.9-7.786,2.481-10.022,4.845a19.126,19.126,0,0,0-4.012,6.543,29.233,29.233,0,0,0-.985,3.614,12.951,12.951,0,0,1-.858,2.28c-.2.455-.406.91-.586,1.383a3.494,3.494,0,0,0-.272,1.679,3.845,3.845,0,0,0,1.463,2.226c.49.449.813.765.817,1.041a1.694,1.694,0,0,1-.17.434,38.6,38.6,0,0,1-4.376,7.111c-.724.883-1.484,1.912-1.325,2.942A3.064,3.064,0,0,0,2.471,38.39Z" transform="translate(-0.998 -0.999)" fill="#d80000"/>
      <path id="Shape-2" data-name="Shape" d="M12.938,15.889a13.174,13.174,0,0,1,2.744-4.5c1.333-1.411,3.638-2.45,6.852-3.089a1,1,0,0,0-.389-1.962c-3.629.722-6.292,1.958-7.916,3.674A15.159,15.159,0,0,0,11.061,15.2a25.431,25.431,0,0,0-.821,3.051l1.953.433A23.9,23.9,0,0,1,12.938,15.889Z" transform="translate(-0.998 -0.999)" fill="#d80000"/>
      <path id="Shape-3" data-name="Shape" d="M33.858,6.6l-.6,2.992a11.906,11.906,0,0,0-1.684.7l-2.539-1.7a2,2,0,0,0-2.512.261l-1.66,1.659a2,2,0,0,0-.264,2.535l1.692,2.527a11.906,11.906,0,0,0-.7,1.684l-2.988.6A2,2,0,0,0,21,19.819v2.36a2,2,0,0,0,1.6,1.961l2.992.6a11.905,11.905,0,0,0,.7,1.684l-1.7,2.539a2,2,0,0,0,.261,2.512l1.66,1.66a2.006,2.006,0,0,0,2.534.263l2.527-1.692a11.906,11.906,0,0,0,1.684.7l.6,2.988A2,2,0,0,0,35.819,37h2.36a2,2,0,0,0,1.961-1.6l.6-2.992a11.906,11.906,0,0,0,1.684-.7l2.539,1.7a2,2,0,0,0,2.512-.261l1.659-1.659a2,2,0,0,0,.264-2.535l-1.692-2.527a11.906,11.906,0,0,0,.7-1.684l2.988-.6A1.992,1.992,0,0,0,52.771,23.1l1.507,1.01a1.826,1.826,0,0,0,.971.281,1.8,1.8,0,0,0,1.277-.531l1.33-1.33a1.816,1.816,0,0,0,.233-2.274l-1.29-1.93a9.4,9.4,0,0,0,.484-1.162l2.263-.451A1.8,1.8,0,0,0,61,14.939V13.06a1.8,1.8,0,0,0-1.445-1.771l-2.273-.453A9.256,9.256,0,0,0,56.8,9.674l1.31-1.953a1.807,1.807,0,0,0-.25-2.248l-1.33-1.33a1.815,1.815,0,0,0-2.274-.233L52.325,5.2a9.4,9.4,0,0,0-1.162-.484l-.452-2.263A1.8,1.8,0,0,0,48.939,1h-1.88a1.8,1.8,0,0,0-1.771,1.445l-.453,2.273a9.256,9.256,0,0,0-1.162.485L41.72,3.893a1.809,1.809,0,0,0-2.248.25l-.9.9A2.049,2.049,0,0,0,38.179,5h-2.36A2,2,0,0,0,33.858,6.6Zm15.287,3.92-.467-.467a3.979,3.979,0,0,1,1.243,7.507l-1.518-.3a11.905,11.905,0,0,0-.7-1.684l1.7-2.539a2,2,0,0,0-.258-2.514Zm-8.37-4.856L43.062,7.2a1,1,0,0,0,1.068.029,7.315,7.315,0,0,1,1.83-.765,1,1,0,0,0,.72-.77L47.217,3h1.564l.537,2.7a1,1,0,0,0,.72.77,7.315,7.315,0,0,1,1.83.765A1,1,0,0,0,52.936,7.2l2.286-1.534,1.11,1.11L54.8,9.063a1,1,0,0,0-.029,1.068,7.315,7.315,0,0,1,.765,1.83,1,1,0,0,0,.77.72l2.7.537v1.564l-2.695.537a1,1,0,0,0-.77.72,7.315,7.315,0,0,1-.765,1.83,1,1,0,0,0,.029,1.068l1.534,2.286-1.11,1.11L53,20.841V19.819a2.006,2.006,0,0,0-.7-1.523A5.986,5.986,0,0,0,48.129,8a5.787,5.787,0,0,0-1.779.292,2.028,2.028,0,0,0-1.4.308l-2.525,1.692a11.906,11.906,0,0,0-1.684-.7l-.6-2.988a1.834,1.834,0,0,0-.069-.236ZM35.1,10.577,35.819,7h2.36l.719,3.58a1,1,0,0,0,.719.768,9.851,9.851,0,0,1,2.361.98,1,1,0,0,0,1.058-.034l3.026-2.024,1.676,1.667-2.03,3.029a1,1,0,0,0-.034,1.058,9.851,9.851,0,0,1,.98,2.361,1,1,0,0,0,.768.719L51,19.818v2.361l-3.58.719a1,1,0,0,0-.768.719,9.851,9.851,0,0,1-.98,2.361,1,1,0,0,0,.034,1.058l2.024,3.026-1.667,1.676-3.029-2.03a1,1,0,0,0-1.058-.034,9.851,9.851,0,0,1-2.361.98,1,1,0,0,0-.719.768L38.179,35h-2.36l-.719-3.58a1,1,0,0,0-.719-.768,9.851,9.851,0,0,1-2.361-.98,1,1,0,0,0-1.058.034l-3.026,2.024-1.676-1.667,2.03-3.029a1,1,0,0,0,.034-1.058,9.851,9.851,0,0,1-.98-2.361,1,1,0,0,0-.768-.719L23,22.179v-2.36l3.58-.719a1,1,0,0,0,.768-.719,9.851,9.851,0,0,1,.98-2.361,1,1,0,0,0-.034-1.058L26.27,11.937l1.667-1.676,3.029,2.03a1,1,0,0,0,1.058.034,9.851,9.851,0,0,1,2.361-.98A1,1,0,0,0,35.1,10.577Z" transform="translate(-0.998 -0.999)" fill="#d80000"/>
      <path id="Shape-4" data-name="Shape" d="M37,28a7,7,0,1,0-7-7A7,7,0,0,0,37,28Zm0-12a5,5,0,1,1-5,5A5,5,0,0,1,37,16Z" transform="translate(-0.999 -0.999)" fill="#d80000"/>
      <circle id="Oval" cx="1" cy="1" r="1" transform="translate(35 18.999)" fill="#d80000"/>
      <circle id="Oval-2" data-name="Oval" cx="1" cy="1" r="1" transform="translate(8 19.999)" fill="#d80000"/>
    </g>
  </g>
</svg>
