<svg xmlns="http://www.w3.org/2000/svg" width="60" height="60" viewBox="0 0 60 60">
  <g id="promotie-lopend" transform="translate(-326 -6233)">
    <rect id="Rectangle_32" data-name="Rectangle 32" width="60" height="60" rx="5" transform="translate(326 6233)" fill="rgba(216,0,0,0.15)"/>
    <g id="progress" transform="translate(333.643 6249.19)">
      <path id="Path_52" data-name="Path 52" d="M3.534,27.365a.873.873,0,0,0,1.235,0L17.987,14.147l8,8a.873.873,0,0,0,1.235,0l4.642-4.642a.873.873,0,1,0-1.235-1.235L26.607,20.3l-8-8a.873.873,0,0,0-1.235,0L4.151,25.513,2.108,23.47,17.987,7.591l8,8a.873.873,0,0,0,1.235,0L37.772,5.047a.873.873,0,0,0,0-1.235L37.45,3.49l5.156-1.381L41.224,7.264l-.175-.175a.873.873,0,0,0-1.235,0l-4.242,4.242a.873.873,0,1,0,1.235,1.235l3.625-3.625.627.627a.873.873,0,0,0,1.461-.391L44.685,1.1A.874.874,0,0,0,43.615.03L35.537,2.194a.874.874,0,0,0-.392,1.461l.774.774-9.312,9.312-8-8a.873.873,0,0,0-1.235,0L.256,22.852a.873.873,0,0,0,0,1.235Zm0,0" transform="translate(0)" fill="#d80000"/>
      <path id="Path_54" data-name="Path 54" d="M376.357,155.365a.873.873,0,1,0,.617-.256A.88.88,0,0,0,376.357,155.365Zm0,0" transform="translate(-343.256 -141.563)" fill="#d80000"/>
    </g>
  </g>
</svg>
